<svg width="1202" height="666" viewBox="0 0 1202 666" xmlns="http://www.w3.org/2000/svg"><g fill="none"><path d="M241.689 365.332c-.233 0-.466 0-.466-.233l-14.201-8.126c-.466-.232-.466-.696-.466-.928 0-.465.233-.697.466-.93l19.556-11.376c.466-.232.699-.232 1.164 0l7.218 4.18c.465.231.465.696.465.928 0 .464-.233.697-.466.929l-10.476 6.036 5.122 3.019c.465.232.465.696.465.928 0 .465-.232.697-.465.929l-7.218 4.18c-.232.231-.465.464-.698.464zm-11.64-9.52l11.873 6.733 4.889-2.786-5.122-3.018c-.466-.232-.466-.697-.466-.929 0-.464.233-.696.466-.928l10.477-6.037-4.89-2.786-17.228 9.751zm568.45-178.257c-.233 0-.466 0-.466-.233l-7.217-4.179c-.466-.232-.466-.696-.466-.929 0-.464.233-.696.466-.928l10.477-6.037-32.827-19.038c-.466-.232-.466-.697-.466-.929 0-.464.233-.697.466-.929l7.217-4.179c.466-.232.698-.232 1.164 0l41.907 24.147c.465.232.465.696.465.928 0 .465-.232.697-.465.929l-19.557 11.377h-.698zm-4.89-5.34L798.5 175l17.228-9.984-39.578-22.753-4.89 2.786 32.827 19.038c.466.233.466.697.466.929 0 .464-.233.697-.466.929l-10.476 6.269zM678.917 643.943c-.233 0-.466 0-.466-.232l-14.201-8.126c-.466-.232-.466-.696-.466-.929 0-.232.233-.696.466-.928l7.217-4.18c.466-.232.698-.232 1.164 0l6.286 3.715 11.64-6.733c.466-.232.7-.232 1.165 0l7.217 4.18c.466.231.466.696.466.928 0 .232-.233.697-.466.929l-19.556 11.376h-.466zm-11.874-9.287l11.874 6.733 17.228-9.983-4.889-2.786-11.64 6.733c-.466.232-.699.232-1.165 0l-6.286-3.715-5.122 3.018zm115.477-18.11c-27.472 0-54.479-7.197-77.993-20.664L480.792 467.024c-.466-.232-.699-.928-.466-1.625.233-.464.931-.696 1.63-.464L705.69 593.793c29.801 17.181 65.188 23.914 99.645 18.806 30.266-4.411 55.41-17.877 65.188-35.058 11.641-20.2.466-41.792-30.498-59.67L533.408 341.185l-60.066 34.594c-17.694 10.216-28.404 23.682-30.267 38.077-1.396 12.305 3.493 24.379 14.668 34.827a1.12 1.12 0 0 1 0 1.625 1.128 1.128 0 0 1-1.63 0c-11.64-11.145-16.995-23.682-15.366-36.684 1.863-15.092 13.038-29.254 31.43-39.702l60.765-34.827c.466-.232.699-.232 1.164 0l307.549 176.919c16.996 9.751 28.171 20.431 33.06 31.808 4.656 10.448 3.958 21.128-1.862 31.112-10.244 17.645-35.854 31.576-67.051 36.219a192.817 192.817 0 0 1-23.282 1.393z" fill="#fff" fill-opacity=".2"/><path d="M481.49 451.7c-.466 0-.699-.232-.932-.464-.233-.464-.233-1.16.466-1.625l22.816-13.234c.465-.232 1.164-.232 1.63.464.232.465.232 1.161-.466 1.625l-22.816 13.235h-.698zm531.754 163.047c-2.561 0-5.122-.697-6.985-1.626-2.095-1.16-3.259-2.786-3.259-4.643 0-1.858 1.164-3.483 3.26-4.644 3.724-2.09 10.243-2.09 13.968 0 2.096 1.161 3.26 2.786 3.26 4.644 0 1.857-1.164 3.482-3.26 4.643-1.862.929-4.423 1.626-6.984 1.626zm0-10.448c-2.328 0-4.19.464-5.82 1.393-1.397.696-2.096 1.625-2.096 2.786 0 .928.699 1.857 2.096 2.786 3.026 1.857 8.614 1.857 11.64 0 1.397-.697 2.096-1.625 2.096-2.786 0-.929-.699-1.858-2.096-2.786-1.63-.93-3.725-1.393-5.82-1.393zm18.625-2.321c-1.63 0-3.26-.465-4.424-1.161-1.397-.697-2.095-2.09-2.095-3.25 0-1.162.698-2.555 2.095-3.251 2.329-1.393 6.52-1.393 8.847 0 1.397.696 2.096 2.09 2.096 3.25 0 1.161-.699 2.554-2.096 3.25-1.164.697-2.793 1.162-4.423 1.162zm0-6.27c-1.164 0-2.561.233-3.26.697-.698.465-.93.93-.93 1.161 0 .465.465.929.93 1.161 1.63.929 4.89.929 6.52 0 .698-.464.93-.929.93-1.16 0-.465-.465-.93-.93-1.162-.932-.464-2.096-.696-3.26-.696zm16.53-3.25c-1.63 0-3.26-.465-4.424-1.161-1.397-.697-2.095-2.09-2.095-3.25 0-1.162.698-2.555 2.095-3.251 2.328-1.393 6.52-1.393 8.847 0 1.397.696 2.096 2.09 2.096 3.25 0 1.161-.699 2.554-2.096 3.25-1.164.697-2.56 1.162-4.423 1.162zm0-6.501c-1.164 0-2.561.232-3.26.696-.698.465-.93.929-.93 1.161 0 .464.465.929.93 1.161 1.63.929 4.89.929 6.52 0 .698-.464.93-.929.93-1.16 0-.465-.465-.93-.93-1.162-.7-.464-1.863-.696-3.26-.696zm16.76-3.25c-1.63 0-3.26-.465-4.424-1.161-1.397-.697-2.095-2.09-2.095-3.25 0-1.162.698-2.323 2.095-3.251 2.328-1.393 6.52-1.393 8.847 0 1.397.696 2.096 2.09 2.096 3.25 0 1.161-.699 2.322-2.096 3.25-1.164.697-2.793 1.162-4.423 1.162zm0-6.27c-1.164 0-2.561.233-3.26.697-.698.465-.93.93-.93 1.161 0 .465.465.929.93 1.161 1.63.929 4.89.929 6.52 0 .698-.464.93-.929.93-1.16 0-.465-.465-.93-.93-1.162-.7-.464-1.863-.696-3.26-.696z" fill="#fff" fill-opacity=".2"/><path d="M467.986 470.507c-5.355 0-10.244-1.16-13.969-3.482-3.958-2.322-6.053-5.34-6.053-8.823 0-3.25 2.095-6.5 6.053-8.823 3.725-2.09 8.847-3.25 13.97-3.25 5.354 0 10.243 1.16 13.968 3.483 3.958 2.321 6.053 5.34 6.053 8.822 0 3.25-2.095 6.501-6.053 8.823-3.725 2.09-8.614 3.25-13.969 3.25zm0-22.056c-4.889 0-9.545 1.16-12.805 3.018-3.26 1.857-4.889 4.18-4.889 6.733 0 2.554 1.863 4.876 4.89 6.733 3.492 1.858 7.915 3.019 12.804 3.019 4.89 0 9.546-1.161 12.805-3.019 3.26-1.857 4.89-4.179 4.89-6.733 0-2.554-1.863-4.876-4.89-6.733-3.26-1.857-7.916-3.018-12.805-3.018z" fill="#fff" fill-opacity=".2"/><path d="M467.987 464.238c-2.329 0-4.657-.464-6.286-1.625-1.863-1.161-3.027-2.554-3.027-4.412 0-1.625 1.164-3.25 3.027-4.411 3.492-1.857 9.312-1.857 12.572 0 1.862 1.16 3.026 2.554 3.026 4.411 0 1.626-1.164 3.25-3.026 4.412-1.63.928-3.958 1.625-6.286 1.625zm0-9.287c-1.863 0-3.725.464-5.122 1.16-1.164.697-1.863 1.394-1.863 2.323 0 .696.699 1.625 1.863 2.321 2.56 1.626 7.683 1.626 10.244 0 1.164-.696 1.862-1.393 1.862-2.321 0-.697-.698-1.626-1.862-2.322-1.397-.929-3.26-1.161-5.122-1.161zm42.139-15.091c-2.329 0-4.657-.464-6.286-1.625-1.863-1.161-3.027-2.554-3.027-4.412 0-1.625 1.164-3.25 3.027-4.41 3.492-1.858 9.312-1.858 12.572 0 1.862 1.16 3.026 2.553 3.026 4.41 0 1.626-1.164 3.25-3.026 4.412-1.863 1.16-3.958 1.625-6.286 1.625zm0-9.287c-1.863 0-3.725.464-5.122 1.16-1.164.697-1.863 1.394-1.863 2.323 0 .696.699 1.625 1.863 2.321 2.56 1.626 7.683 1.626 10.243 0 1.165-.696 1.863-1.393 1.863-2.321 0-.93-.698-1.626-1.863-2.322-1.396-.697-3.259-1.161-5.121-1.161zm-91.031-54.329c-.233 0-.466 0-.466-.232l-34.223-19.735c-.466-.233-.466-.697-.466-.929 0-.464.233-.697.466-.929l11.64-6.733c.466-.232.699-.232 1.165 0l34.223 19.735c.466.232.466.697.466.929 0 .464-.233.696-.466.929l-11.64 6.733c-.233.232-.466.232-.699.232zM387.2 355.58l31.896 18.342 9.313-5.34-31.896-18.574-9.313 5.572zm88.469 203.85c-.233 0-.466 0-.466-.232l-63.325-36.22c-.466-.231-.466-.696-.466-.928 0-.464.233-.696.466-.929l9.778-5.572c.466-.232.698-.232 1.164 0l63.093 36.452c.466.232.466.696.466.929 0 .464-.233.696-.466.928l-9.778 5.573h-.466zm-60.765-37.612l60.765 35.059 7.45-4.18-60.765-35.058-7.45 4.179zM272.421 338.167c-.232 0-.465 0-.465-.233l-28.87-16.716c-.465-.233-.465-.697-.465-.93 0-.231.233-.696.466-.928l11.64-6.733c.466-.232.699-.232 1.164 0l28.87 16.485c.465.232.465.696.465.928 0 .465-.233.697-.465.93l-11.641 6.732c-.466.465-.466.465-.699.465zm-26.54-17.878l26.54 15.324 9.313-5.34-26.541-15.324-9.313 5.34zm59.599-32.505c-.232 0-.465 0-.465-.232l-31.43-18.11c-.466-.232-.466-.696-.466-.928 0-.233.233-.697.466-.93l31.43-18.109c.465-.232.698-.232 1.164 0l31.43 18.11c.466.232.466.696.466.929 0 .464-.233.696-.466.928l-31.43 18.11c-.233.232-.466.232-.699.232zm-29.102-19.27l29.102 16.716 29.102-16.716-29.102-16.717-29.102 16.717z" fill="#fff" fill-opacity=".2"/><path d="M305.48 280.587c-.232 0-.465 0-.465-.232l-18.625-10.68c-.466-.232-.466-.697-.466-.929 0-.232.233-.697.466-.929l18.625-10.68c.466-.232.698-.232 1.164 0l18.625 10.68c.466.232.466.697.466.929 0 .464-.233.697-.466.929l-18.625 10.68c-.233 0-.466.232-.698.232zm-16.297-12.073l16.297 9.519 16.298-9.52-16.298-9.518-16.297 9.519zm-48.891 22.985c-.233 0-.465 0-.465-.232l-18.858-10.68c-.466-.232-.466-.697-.466-.929 0-.464.233-.697.466-.929l18.858-10.68c.465-.232.698-.232 1.164 0l18.858 10.68c.465.232.465.697.465.929 0 .464-.232.697-.465.929l-18.858 10.912h-.699zm-16.53-11.841l16.53 9.52 16.53-9.52-16.53-9.52-16.53 9.52zm83.348 24.843c-.232 0-.465 0-.465-.232l-9.778-5.34c-.466-.232-.466-.697-.466-.929 0-.464.233-.696.466-.929l9.545-5.572c.466-.232.699-.232 1.164 0l9.546 5.572c.465.233.465.697.465.93 0 .463-.233.696-.465.928l-9.546 5.572h-.466zm-7.217-6.733l7.218 4.18 7.217-4.18-7.217-4.18-7.218 4.18zm-9.778-53.633c-.232 0-.465 0-.465-.232l-9.778-5.572c-.466-.232-.466-.697-.466-.929 0-.464.233-.696.466-.929l9.778-5.572c.466-.232.698-.232 1.164 0l9.778 5.572c.466.233.466.697.466.93 0 .463-.233.696-.466.928l-9.778 5.572c-.466 0-.698.232-.698.232zm-7.682-6.965l7.45 4.411 7.45-4.411-7.45-4.411-7.45 4.41zm21.185 135.59c-.233 0-.466 0-.466-.232l-30.498-17.645c-.466-.232-.466-.697-.466-.929 0-.464.233-.696.466-.928l5.82-3.25c.466-.233.698-.233 1.164 0l30.499 17.645c.465.232.465.696.465.928 0 .465-.232.697-.465.929l-5.82 3.25c-.233.233-.466.233-.699.233zm-28.17-18.806l28.17 16.253 3.492-1.858-28.17-16.252-3.493 1.857zm86.84 100.533c-7.217 0-14.434-1.625-20.022-4.644l-81.951-47.131c-.466-.233-.698-.929-.466-1.626.233-.464.932-.696 1.63-.464l81.951 47.132c10.477 6.037 27.239 6.037 37.483 0l14.202-8.126c.466-.232 1.164-.232 1.63.464.233.465.233 1.161-.466 1.625l-14.202 8.127c-5.354 3.018-12.572 4.643-19.789 4.643z" fill="#fff" fill-opacity=".2"/><path d="M256.124 402.943c-1.63 0-3.027-.464-4.19-.928-1.398-.697-2.096-1.858-2.096-3.25 0-1.394.698-2.323 2.095-3.251 2.328-1.393 6.286-1.393 8.614 0 1.397.696 2.096 1.857 2.096 3.018 0 1.161-.699 2.322-2.095 3.25-1.397.93-2.794 1.161-4.424 1.161zm0-6.036c-1.164 0-2.328.232-3.027.696-.698.233-.93.697-.93 1.161 0 .465.465.697.93 1.161 1.63.929 4.657.929 6.286 0 .699-.232.932-.696.932-1.16 0-.465-.466-.697-.932-1.162-.93-.464-2.095-.696-3.259-.696zm-14.202-2.09c-1.63 0-3.027-.464-4.19-.928-1.398-.697-2.096-1.858-2.096-3.019 0-1.16.698-2.322 2.095-3.25 2.328-1.393 6.286-1.393 8.615 0 1.396.696 2.095 1.857 2.095 3.018 0 1.161-.699 2.322-2.095 3.25-1.397.465-2.794.93-4.424.93zm0-6.036c-1.164 0-2.328.232-3.027.696-.698.232-.93.697-.93 1.161 0 .464.465.697.93 1.161 1.63.929 4.657.929 6.286 0 .699-.232.932-.697.932-1.16 0-.465-.466-.697-.932-1.162-.93-.464-2.095-.696-3.259-.696zm-14.202-2.09c-1.63 0-3.027-.464-4.19-.928-1.398-.697-2.096-1.858-2.096-3.25 0-1.162.698-2.323 2.095-3.251 2.328-1.393 6.286-1.393 8.614 0 1.397.696 2.096 1.857 2.096 3.25 0 1.161-.699 2.322-2.096 3.25-1.396.465-3.026.93-4.423.93zm0-6.036c-1.164 0-2.328.232-3.027.696-.698.233-.93.697-.93 1.161 0 .465.465.697.93 1.161 1.63.929 4.657.929 6.286 0 .699-.232.932-.696.932-1.16 0-.465-.466-.697-.932-1.162-.93-.464-2.095-.696-3.259-.696zm-14.434-2.322c-1.63 0-3.027-.464-4.19-.928-1.398-.697-2.096-1.858-2.096-3.25 0-1.162.698-2.322 2.095-3.251 2.328-1.393 6.286-1.393 8.615 0 1.396.696 2.095 1.857 2.095 3.018 0 1.161-.699 2.322-2.095 3.25-1.165.93-2.794 1.161-4.424 1.161zm0-6.036c-1.164 0-2.328.232-3.027.696-.698.233-.93.697-.93 1.161 0 .465.465.697.93 1.161 1.63.929 4.657.929 6.286 0 .699-.232.932-.696.932-1.16 0-.465-.466-.697-.932-1.162-.93-.232-1.862-.696-3.259-.696zm188.347 71.045c-2.56 0-4.889-.464-6.518-1.625-2.096-1.161-3.027-2.786-3.027-4.411 0-1.858 1.164-3.25 3.027-4.412 3.492-2.09 9.545-2.09 13.27 0 2.095 1.161 3.027 2.786 3.027 4.412 0 1.857-1.164 3.25-3.027 4.41-1.862.93-4.19 1.626-6.752 1.626zm0-9.983c-2.095 0-3.957.464-5.354 1.393-1.164.696-1.863 1.625-1.863 2.554 0 .928.699 1.857 1.863 2.553 2.793 1.626 8.148 1.626 10.942 0 1.164-.696 1.863-1.625 1.863-2.553 0-.93-.699-1.858-1.863-2.554-1.63-.93-3.492-1.393-5.588-1.393zm680.442-37.055c-.233 0-.465 0-.465-.232l-25.144-14.627c-.466-.232-.466-.697-.466-.929 0-.464.233-.696.466-.929l30.033-17.413c.465-.232.698-.232 1.164 0l25.144 14.627c.466.232.466.697.466.929 0 .464-.233.697-.466.929l-30.033 17.645h-.699zm-22.816-15.556l22.816 13.234 27.705-16.02-22.816-13.234-27.705 16.02zm25.607 33.666c-.233 0-.466 0-.466-.232l-6.984-3.947c-.466-.233-.466-.697-.466-.929 0-.464.233-.697.466-.929l11.873-6.733c.466-.232.699-.232 1.164 0l6.985 3.947c.465.232.465.697.465.929 0 .464-.232.696-.465.929l-11.874 6.733c-.233 0-.465.232-.698.232zm-4.657-5.108l4.657 2.554 9.545-5.572-4.656-2.554-9.546 5.572zm-119.023-56.825c-.233 0-.465 0-.465-.232l-20.255-11.609c-.466-.232-.466-.696-.466-.928 0-.465.233-.697.466-.929l20.255-11.609c.465-.232.698-.232 1.164 0l20.255 11.609c.465.232.465.697.465.929 0 .464-.233.696-.465.928l-20.255 11.61c-.233.231-.466.231-.699.231zm-17.927-12.77l17.927 10.216 17.927-10.215-17.927-10.216-17.927 10.216zm23.748 26.004c-.233 0-.466 0-.466-.232l-8.381-4.876c-.466-.232-.466-.696-.466-.928 0-.465.233-.697.466-.93l8.381-4.875c.466-.232.698-.232 1.164 0l8.381 4.876c.466.232.466.696.466.929 0 .464-.233.696-.466.928l-8.38 4.876c-.234 0-.467.232-.7.232zm-6.054-6.036l6.054 3.482 6.053-3.482-6.053-3.483-6.054 3.483zm-361.426 61.142c-5.355 0-10.477-1.16-14.435-3.483-3.958-2.321-6.286-5.572-6.286-9.054 0-3.483 2.328-6.501 6.286-9.055 3.958-2.322 9.08-3.483 14.435-3.483 5.354 0 10.476 1.16 14.434 3.483 3.958 2.321 6.286 5.572 6.286 9.055 0 3.482-2.328 6.5-6.286 9.054-3.958 2.09-9.08 3.483-14.434 3.483zm0-22.521c-5.122 0-9.779 1.16-13.27 3.25-3.26 1.858-5.123 4.412-5.123 6.966 0 2.554 1.863 5.108 5.122 6.965 3.492 2.09 8.149 3.25 13.27 3.25 5.123 0 9.779-1.16 13.271-3.018 3.26-1.857 5.122-4.411 5.122-6.965 0-2.554-1.862-5.108-5.122-6.965-3.492-2.322-8.149-3.483-13.27-3.483z" fill="#fff" fill-opacity=".2"/><path d="M599.526 414.552c-2.561 0-5.122-.696-6.985-1.625-2.095-1.16-3.259-2.786-3.259-4.643 0-1.858 1.164-3.483 3.26-4.644 3.724-2.09 10.01-2.09 13.735 0 2.096 1.161 3.26 2.786 3.26 4.644 0 1.857-1.164 3.482-3.26 4.643-1.63 1.161-4.19 1.625-6.751 1.625zm0-10.215c-2.095 0-4.19.464-5.82 1.393-1.397.696-2.096 1.625-2.096 2.554 0 .928.699 1.857 2.096 2.554 3.026 1.857 8.38 1.857 11.407 0 1.397-.697 2.096-1.626 2.096-2.554 0-.929-.699-1.858-2.096-2.554-1.396-.929-3.492-1.393-5.587-1.393zm-41.208-25.075c-.233 0-.466 0-.466-.233l-21.651-12.537c-.466-.232-.466-.697-.466-.929 0-.464.233-.696.466-.929l5.122-3.018c.465-.232.698-.232 1.164 0l21.652 12.538c.465.232.465.696.465.928 0 .465-.233.697-.466.93l-5.122 3.017c-.465.233-.698.233-.698.233zm-19.556-13.699l19.323 11.145 2.794-1.626-19.324-11.144-2.793 1.625zm17.694 25.54c-.233 0-.466 0-.466-.233l-31.197-17.877c-.466-.232-.466-.697-.466-.929 0-.464.233-.696.466-.929l5.122-3.018c.465-.232.698-.232 1.164 0l31.197 17.878c.466.232.466.696.466.928 0 .233-.233.697-.466.93l-5.122 3.017c-.233.233-.466.233-.698.233zm-28.87-19.039l28.87 16.717 2.793-1.625-28.869-16.717-2.794 1.625zM350.37 566.67c-.232 0-.465 0-.465-.231l-54.479-31.344c-8.614-4.876-22.35-4.876-30.964 0l-5.588 3.25c-.466.232-1.164.232-1.63-.464-.233-.465-.233-1.161.466-1.625l5.587-3.251c9.08-5.34 23.98-5.34 33.293 0l54.246 31.576c.466.232.699.929.466 1.625-.233.232-.466.465-.932.465z" fill="#fff" fill-opacity=".2"/><path d="M253.984 544.382c-1.862 0-3.492-.464-4.656-1.16-1.397-.93-2.328-2.09-2.328-3.484 0-1.393.931-2.554 2.328-3.482 2.561-1.393 6.985-1.393 9.546 0 1.396.928 2.328 2.09 2.328 3.482 0 1.393-.931 2.554-2.328 3.483a10.846 10.846 0 0 1-4.89 1.161zm0-6.733c-1.396 0-2.56.232-3.492.929-.698.464-1.164.928-1.164 1.393 0 .464.466.928 1.164 1.393 1.863 1.16 5.355 1.16 7.218 0 .698-.465 1.164-.929 1.164-1.393 0-.465-.466-.93-1.165-1.393-.93-.697-2.328-.93-3.725-.93zm101.508 35.987c-2.095 0-4.19-.464-5.587-1.393-1.63-.929-2.794-2.322-2.794-3.947s.931-3.018 2.794-3.947c3.026-1.857 8.381-1.857 11.408 0 1.63.929 2.793 2.322 2.793 3.947s-.93 3.018-2.793 3.947c-1.63.929-3.725 1.393-5.82 1.393zm0-8.126c-1.63 0-3.26.464-4.423 1.16-.931.465-1.63 1.162-1.63 1.858 0 .697.466 1.393 1.63 1.858 2.328 1.393 6.751 1.393 9.08 0 .93-.465 1.63-1.161 1.63-1.858 0-.696-.466-1.393-1.63-1.857-1.397-.929-3.027-1.161-4.657-1.161zm308.758-12.58c-.466 0-.932-.464-1.165-.929l-1.164-5.107c0-.233 0-.697.233-.93.233-.231.465-.464.931-.464l16.297-1.16 1.863-9.055c0-.465.698-.929 1.164-.929l9.08.697c.232 0 .698.232.93.464.234.232.234.696.234.929l-2.561 13.93c0 .465-.466.929-1.164.929l-24.679 1.625zm.232-5.34l.698 2.786 22.35-1.393 2.096-11.84-6.752-.465-1.63 8.823c0 .464-.465.928-1.163.928l-15.599 1.161zm-23.514-8.126c-.465 0-.931-.464-1.164-.929l-1.164-5.107c0-.233 0-.697.233-.93.233-.231.465-.464.931-.464l16.297-1.16 1.63-9.055c0-.465.698-.929 1.164-.929l9.08.697c.233 0 .698.232.931.464.233.232.233.696.233.929l-2.561 13.93c0 .464-.466.929-1.164.929l-24.446 1.625zm.233-5.34l.698 2.786 22.35-1.393 2.096-11.84-6.752-.465-1.63 8.823c0 .464-.465.928-1.163.928l-15.599 1.161zm-23.281-7.894c-.466 0-.932-.465-1.165-.93l-1.164-5.107c0-.233 0-.697.233-.93.233-.231.465-.464.931-.464l16.297-1.16 1.863-9.055c0-.465.698-.929 1.164-.929l9.08.697c.232 0 .698.232.93.464.234.232.234.696.234.929l-2.561 13.93c0 .465-.466.929-1.164.929l-24.679 1.625zm.232-5.34l.698 2.785 22.35-1.393 2.096-11.84-6.752-.465-1.63 8.823c0 .464-.465.928-1.163.928l-15.599 1.161zm209.999 102.39c-6.751 0-13.27-1.626-18.16-4.412-5.121-3.018-7.915-6.965-7.915-11.144 0-4.18 2.794-8.126 7.916-11.145 4.889-2.786 11.408-4.411 18.16-4.411 6.75 0 13.27 1.625 18.159 4.411 5.122 3.019 7.916 6.966 7.916 11.145 0 4.179-2.794 8.126-7.916 11.144-4.89 3.019-11.175 4.412-18.16 4.412zm0-28.558c-6.518 0-12.339 1.393-16.995 3.947-4.424 2.554-6.752 5.804-6.752 9.055 0 3.483 2.328 6.733 6.752 9.055 4.423 2.554 10.477 3.947 16.995 3.947 6.52 0 12.34-1.393 16.996-3.947 4.423-2.554 6.751-5.805 6.751-9.055 0-3.483-2.328-6.501-6.751-9.055-4.424-2.554-10.477-3.947-16.996-3.947z" fill="#fff" fill-opacity=".2"/><path d="M828.151 617.475c-4.19 0-7.915-.93-10.942-2.554-3.026-1.858-4.889-4.18-4.889-6.966 0-2.554 1.63-5.108 4.89-6.965 3.026-1.625 6.75-2.554 10.941-2.554 4.191 0 7.916.929 10.943 2.554 3.026 1.857 4.889 4.18 4.889 6.965 0 2.554-1.63 5.108-4.89 6.966-3.026 1.625-6.75 2.553-10.942 2.553zm0-16.717c-3.725 0-7.217.928-9.778 2.322-2.328 1.393-3.725 3.018-3.725 4.875 0 1.858 1.397 3.483 3.725 4.876 2.561 1.393 6.053 2.322 9.778 2.322 3.726 0 7.218-.929 9.779-2.322 2.328-1.393 3.725-3.018 3.725-4.876 0-1.857-1.397-3.482-3.725-4.875-2.561-1.626-6.053-2.322-9.779-2.322zM454.25 329.112h-.466c-.232-.232-.698-.465-.698-.697l-2.561-9.287c0-.464 0-.696.233-1.16.233-.233.698-.465.931-.465l15.831 1.393c.466 0 .932.464.932.929 0 .464 0 .928-.466 1.16l-13.503 7.662c.233.233 0 .465-.233.465zm-.931-9.055l1.63 6.037 8.846-5.108-10.476-.93zm101.275 241.231h-.466c-.233-.232-.698-.464-.698-.696l-4.191-15.092c0-.464 0-.696.233-1.16.233-.233.698-.465.931-.465l26.308 2.322c.466 0 .932.464.932.928 0 .465 0 .93-.466 1.161l-22.118 12.77s-.232.232-.465.232zm-2.561-15.091l3.26 12.073 17.693-10.216-20.953-1.857zm-21.885.928h-.466c-.233-.232-.698-.464-.698-.696l-4.191-15.092c0-.464 0-.696.233-1.16.233-.465.698-.465.931-.465l26.308 2.322c.466 0 .932.464.932.928 0 .465 0 .93-.466 1.161l-22.118 12.77s-.232.232-.465.232zm-2.561-15.091l3.26 12.073 17.693-10.216-20.953-1.857zm-22.118.928h-.466c-.233-.232-.698-.464-.698-.696l-4.191-15.092c0-.464 0-.696.233-1.16.233-.233.698-.465.931-.465l26.308 2.322c.466 0 .932.464.932.928 0 .465 0 .93-.466 1.161l-22.118 12.77c0 .232-.232.232-.465.232zm-2.561-15.091l3.26 12.073 17.693-10.216-20.953-1.857zM433.53 317.039h-.467c-.232-.232-.698-.465-.698-.697l-2.561-9.287c0-.464 0-.696.233-1.16.233-.233.698-.465.931-.465l15.831 1.393c.466 0 .932.464.932.929 0 .464 0 .928-.466 1.16l-13.503 7.663c.233.464 0 .464-.233.464zm-.932-9.055l1.63 6.037 8.846-5.108-10.476-.93zm-19.788-2.786h-.467c-.232-.232-.698-.465-.698-.697l-2.561-9.287c0-.464 0-.696.233-1.16.233-.233.698-.465.931-.465l15.832 1.393c.465 0 .93.464.93.929 0 .464 0 .928-.465 1.16l-13.503 7.662c.233.233 0 .465-.233.465zm-.932-9.055l1.63 6.037 8.847-5.108-10.477-.93zm-30.964 209.423c-.233 0-.466 0-.466-.232l-22.117-12.77c-.466-.232-.466-.696-.466-.928 0-.465.233-.697.466-.93l22.117-12.769c.466-.232.699-.232 1.164 0l22.118 12.77c.465.232.465.696.465.929 0 .464-.233.696-.465.928l-22.118 12.77c-.233.232-.465.232-.698.232zm-19.79-13.93l19.79 11.376 19.789-11.376-19.79-11.377-19.789 11.377zm29.566 27.86c-.232 0-.465 0-.465-.232l-7.217-4.18c-.466-.231-.466-.696-.466-.928 0-.464.233-.696.466-.929l7.217-4.179c.466-.232.698-.232 1.164 0l7.217 4.18c.466.232.466.696.466.928 0 .464-.233.697-.466.929l-7.217 4.179c-.233.232-.466.232-.698.232zm-4.656-5.34l4.89 2.786 4.888-2.786-4.889-2.786-4.889 2.786zm273.56 98.908c-.233 0-.466 0-.466-.232l-77.76-44.578c-.466-.232-.466-.697-.466-.929 0-.464.233-.697.466-.929l7.45-4.179c.465-.232.698-.232 1.164 0l77.527 44.578c.466.232.466.697.466.929 0 .464-.233.696-.466.928l-7.45 4.18c-.233 0-.465.232-.465.232zm-75.2-45.739l75.2 43.185 5.122-3.018-75.2-43.185-5.122 3.018zm-6.286 31.575c-.233 0-.465 0-.465-.232l-81.951-47.131c-.466-.233-.466-.697-.466-.93 0-.464.233-.696.466-.928l4.423-2.554c.466-.232.699-.232 1.164 0l81.951 47.132c.466.232.466.697.466.929 0 .232-.233.696-.466.928l-4.423 2.554c-.233 0-.466.233-.699.233zm-79.39-48.292l79.623 45.739 2.095-1.161-79.622-45.74-2.096 1.162zm99.412 59.669c-1.862 0-3.724-.464-5.354-1.16-1.63-.93-2.561-2.322-2.561-3.715 0-1.393.931-2.786 2.561-3.715 2.794-1.625 7.683-1.625 10.477 0 1.63.929 2.56 2.322 2.56 3.715 0 1.393-.93 2.786-2.56 3.715-1.397.696-3.26 1.16-5.122 1.16zm0-7.43c-1.629 0-3.026.233-4.19.93-.931.464-1.397 1.16-1.397 1.625 0 .464.466 1.16 1.397 1.625 2.095 1.16 6.053 1.16 8.149 0 .93-.464 1.396-1.16 1.396-1.625 0-.465-.465-1.161-1.396-1.625-.932-.697-2.329-.93-3.958-.93zm19.09 18.575c-1.862 0-3.724-.464-5.354-1.16-1.63-.93-2.561-2.322-2.561-3.715 0-1.393.931-2.786 2.56-3.715 2.795-1.625 7.684-1.625 10.478 0 1.63.929 2.56 2.322 2.56 3.715 0 1.393-.93 2.786-2.56 3.715-1.397.696-3.26 1.16-5.122 1.16zm0-7.661c-1.629 0-3.026.464-4.19.928-.931.465-1.397 1.161-1.397 1.626 0 .464.466 1.16 1.397 1.625 2.095 1.16 6.053 1.16 8.149 0 .93-.465 1.396-1.161 1.396-1.625 0-.465-.465-1.161-1.396-1.626-.932-.696-2.329-.928-3.958-.928zm19.092 18.573c-1.863 0-3.725-.464-5.355-1.16-1.63-.93-2.561-2.322-2.561-3.715 0-1.393.931-2.786 2.561-3.715 2.794-1.625 7.683-1.625 10.477 0 1.63.929 2.56 2.322 2.56 3.715 0 1.393-.93 2.786-2.56 3.715-1.397.696-3.26 1.16-5.122 1.16zm0-7.661c-1.63 0-3.027.464-4.19.928-.932.465-1.398 1.161-1.398 1.626 0 .464.466 1.16 1.397 1.625 2.095 1.16 6.053 1.16 8.149 0 .93-.465 1.396-1.161 1.396-1.625 0-.465-.465-1.161-1.396-1.626a9.024 9.024 0 0 0-3.958-.928zm546.247-179.939c-.233 0-.466 0-.466-.232l-62.627-35.988c-.466-.232-.466-.696-.466-.929 0-.464.233-.696.466-.928l5.82-3.483c.466-.232.698-.232 1.164 0l62.627 35.988c.466.232.466.696.466.928 0 .465-.233.697-.466.929l-5.82 3.483c-.233.232-.466.232-.698.232zm-60.067-37.149l60.3 34.595 3.492-2.09-60.3-34.594-3.492 2.09zm13.067 255.149c-.233 0-.466 0-.466-.232l-62.627-35.988c-.466-.232-.466-.696-.466-.929 0-.464.233-.696.466-.928l5.82-3.483c.466-.232.698-.232 1.164 0l62.627 35.988c.466.232.466.696.466.928 0 .465-.233.697-.466.929l-5.82 3.483c-.233.232-.466.232-.698.232zm-60.067-37.149l60.3 34.595 3.492-2.09-60.3-34.594-3.492 2.09zM1194.06 507.32c-.233 0-.466 0-.466-.232l-32.128-18.574c-.466-.232-.466-.696-.466-.929 0-.464.233-.696.466-.928l5.82-3.483c.466-.232.698-.232 1.164 0l32.129 18.574c.465.232.465.697.465.929 0 .464-.233.697-.465.929l-5.82 3.482c-.234.232-.466.232-.7.232zm-29.8-19.735l29.8 17.182 3.492-2.09-29.8-17.181-3.493 2.09zm-141.2-202.265c-.233 0-.466 0-.466-.232l-32.128-18.574c-.466-.232-.466-.696-.466-.929 0-.464.233-.696.466-.928l5.82-3.483c.466-.232.698-.232 1.164 0l32.129 18.574c.465.232.465.697.465.929 0 .464-.233.696-.465.929l-5.82 3.482c-.466.232-.466.232-.7.232zm-29.8-19.502l29.8 17.18 3.492-2.089-29.8-17.18-3.493 2.089zm32.84 119.48c-.232 0-.465 0-.465-.232l-32.594-18.806c-.466-.232-.698-.929-.466-1.626.233-.464.932-.696 1.63-.464l32.594 18.806c.466.233.699.93.466 1.626-.466.464-.932.696-1.164.696zm-473.835 36.684c-.233 0-.466 0-.466-.232l-23.514-13.466c-.466-.232-.698-.929-.466-1.626.233-.464.932-.696 1.63-.464l23.514 13.466c.466.232.699.929.466 1.626-.466.464-.931.696-1.164.696zm-32.129-18.574c-.232 0-.465 0-.465-.232l-7.683-4.411c-.466-.233-.698-.929-.466-1.626.233-.464.932-.696 1.63-.464l7.683 4.411c.466.233.698.93.466 1.626-.233.464-.699.696-1.165.696zm40.744 30.648c-.233 0-.466 0-.466-.232l-38.88-22.29c-.466-.231-.698-.928-.466-1.625.233-.464.932-.696 1.63-.464l38.88 22.289c.466.232.699.929.466 1.625-.466.465-.699.697-1.164.697zM878.207 606.33c-.466 0-.698-.231-.931-.463-.466-.465-.233-1.161.233-1.626 3.492-2.554 6.751-5.108 9.545-7.894a1.127 1.127 0 0 1 1.63 0 1.12 1.12 0 0 1 0 1.626c-3.027 2.786-6.286 5.572-9.778 8.126-.233.232-.466.232-.699.232zm-437.228-153.7c-.233 0-.466 0-.699-.232-12.106-11.61-17.694-24.843-16.064-38.31 1.863-15.788 13.503-30.415 32.827-41.56.466-.231 1.164-.231 1.63.465.233.465.233 1.161-.466 1.625-18.625 10.68-29.8 24.843-31.663 39.703-1.63 12.77 3.725 25.307 15.366 36.22a1.12 1.12 0 0 1 0 1.624c-.466.233-.698.465-.931.465zm141.319 57.115c-.233 0-.466 0-.466-.232l-33.525-19.27c-.466-.233-.466-.697-.466-.93 0-.231.233-.696.466-.928l11.408-6.5c.465-.233.698-.233 1.164 0l33.525 19.27c.466.232.466.696.466.929 0 .464-.233.696-.466.928l-11.408 6.501c-.466.232-.466.232-.698.232zM551.1 489.314l31.198 17.877 9.08-5.34-31.198-17.877-9.08 5.34zm-23.978-11.145c-.233 0-.466 0-.466-.232l-7.217-4.18c-.466-.232-.466-.696-.466-.928 0-.465.233-.697.466-.929l11.408-6.5c.465-.233.698-.233 1.164 0l7.217 4.178c.466.232.466.697.466.929 0 .464-.233.697-.466.929l-11.408 6.5c-.233 0-.466.233-.698.233zm-4.89-5.34l4.89 2.786 9.08-5.34-4.89-2.786-9.08 5.34zm-7.682-2.089c-.233 0-.466 0-.466-.232l-7.217-4.18c-.466-.232-.466-.696-.466-.928 0-.465.233-.697.466-.929l11.408-6.5c.465-.233.698-.233 1.164 0l7.217 4.178c.466.232.466.697.466.929 0 .464-.233.697-.466.929l-11.408 6.5c-.233.233-.466.233-.698.233zm-4.89-5.34l4.89 2.786 9.08-5.34-4.89-2.786-9.08 5.34zm134.8-1.626c-.233 0-.466 0-.466-.232l-4.19-2.554c-.466-.232-.466-.697-.466-.929 0-.232.233-.696.466-.929l30.266-17.413c.465-.232.698-.232 1.164 0l4.19 2.554c.466.232.466.697.466.929 0 .464-.233.696-.466.928l-30.266 17.414c-.465 0-.465.232-.698.232zm-2.095-3.715l1.862 1.161 27.938-16.02-1.863-1.161-27.937 16.02zm-8.149-2.321c-.233 0-.466 0-.466-.232l-4.19-2.554c-.466-.232-.466-.697-.466-.929 0-.464.233-.696.466-.929l30.266-17.413c.465-.232.698-.232 1.164 0l4.19 2.554c.466.232.466.697.466.929 0 .232-.233.696-.466.929l-30.266 17.413c-.232.232-.465.232-.698.232zm-1.863-3.483l1.863 1.161 27.938-16.02-1.863-1.16-27.938 16.02zm-8.148-2.322c-.233 0-.466 0-.466-.232l-4.19-2.554c-.466-.232-.466-.697-.466-.929 0-.464.233-.696.466-.929l30.266-17.413c.465-.232.698-.232 1.164 0l4.19 2.554c.466.232.466.697.466.929 0 .232-.233.696-.466.929L624.903 451.7c-.465.232-.698.232-.698.232zm-2.095-3.483l1.862 1.161 27.938-16.02-1.863-1.16-27.937 16.02zm142.25 124.447c-.233 0-.466 0-.466-.232l-34.69-19.967c-.465-.232-.465-.697-.465-.929 0-.464.233-.697.466-.929l34.69-19.967c.465-.232.698-.232 1.163 0l34.69 19.967c.465.232.465.697.465.929 0 .464-.233.697-.465.929l-34.69 19.967c-.233 0-.466.232-.698.232zm-32.362-21.36l32.362 18.574 32.361-18.574-32.361-18.574-32.362 18.574z" fill="#fff" fill-opacity=".2"/><path d="M764.36 567.093c-.232 0-.465 0-.465-.233l-24.911-14.395c-.466-.232-.466-.696-.466-.928 0-.465.233-.697.466-.929l24.91-14.395c.467-.232.7-.232 1.165 0l24.911 14.395c.466.232.466.697.466.929 0 .464-.233.696-.466.928l-24.91 14.395c-.233.233-.466.233-.698.233zm-22.35-15.556l22.583 13.002 22.583-13.002-22.583-13.002-22.583 13.002zm24.445 42.023c-.232 0-.465 0-.465-.231l-13.736-7.894c-.466-.233-.466-.697-.466-.93 0-.231.233-.696.466-.928l13.736-7.894c.465-.232.698-.232 1.164 0l13.736 7.894c.466.232.466.697.466.929 0 .232-.233.696-.466.929l-13.736 7.894c-.466.232-.466.232-.699.232zm-11.408-9.054l11.408 6.5 11.408-6.5-11.408-6.501-11.408 6.5zM777.164 666c-.232 0-.465 0-.465-.233l-38.88-22.289c-.466-.232-.466-.696-.466-.928 0-.465.233-.697.466-.929l4.423-2.554c.466-.232.699-.232 1.164 0l38.648 22.057c.465.232.465.696.465.929 0 .232-.233.696-.465.928l-4.424 2.554c-.233.465-.233.465-.466.465zm-36.552-23.45l36.552 20.896 2.096-1.161-36.552-20.896-2.096 1.16z" fill="#fff" fill-opacity=".2"/><path fill-rule="evenodd" clip-rule="evenodd" d="M915.794 635.287c1.63.929 3.725 1.393 5.82 1.393 2.088 0 3.988-.373 5.365-1.12l35.892 20.581c-.964.842-1.446 1.891-1.446 3.06 0 1.393.931 3.019 2.794 3.947 1.63.929 3.725 1.393 5.82 1.393 2.096 0 4.191-.464 5.82-1.393 1.863-.928 2.795-2.321 2.795-3.947 0-1.393-.932-3.018-2.794-3.947-2.741-1.682-7.393-1.84-10.667-.475a.862.862 0 0 0-.275-.221l-35.77-20.511c.72-.776 1.08-1.696 1.08-2.707 0-1.393-.93-3.018-2.793-3.947-3.027-1.857-8.382-1.857-11.641 0-1.863.929-2.794 2.554-2.794 3.947 0 1.393.931 3.018 2.794 3.947zm11.151-2.172c.574-.514.955-1.028.955-1.543 0-.696-.698-1.393-1.63-2.09-1.164-.928-2.793-1.16-4.656-1.16-1.862 0-3.492.464-4.656 1.16-.931.697-1.63 1.394-1.63 2.09 0 .697.699 1.393 1.63 2.09 2.239 1.34 6.632 1.39 9.035.154.013-.052.027-.103.044-.154.15-.3.495-.503.908-.547zm43.095 22.836c-1.863 0-3.493.464-4.657 1.16-.931.697-1.63 1.394-1.63 2.09 0 .697.699 1.393 1.63 2.09 2.328 1.393 6.985 1.393 9.313 0 .931-.697 1.63-1.393 1.63-2.09 0-.696-.466-1.393-1.63-2.09-1.164-.696-3.027-1.16-4.656-1.16z" fill="#fff" fill-opacity=".2"/><path d="M1148.15 348.814c-.233 0-.465 0-.465-.233l-44.468-25.771c-.466-.232-.698-.929-.466-1.626.233-.464.932-.696 1.63-.464l44.468 25.772c.465.232.698.928.465 1.625-.465.464-.93.697-1.164.697zm-52.147-29.951c-.233 0-.466 0-.466-.232l-7.45-4.18c-.466-.232-.698-.928-.466-1.625.233-.464.932-.696 1.63-.464l7.45 4.18c.466.231.699.928.466 1.625-.466.464-.931.696-1.164.696zm-16.77-9.752c-.233 0-.466 0-.466-.232l-7.45-4.18c-.466-.232-.698-.928-.466-1.625.233-.464.932-.696 1.63-.464l7.45 4.18c.466.231.699.928.466 1.625-.466.464-.931.696-1.164.696zm-16.76-9.519c-.233 0-.466 0-.466-.232l-7.45-4.18c-.466-.232-.698-.928-.466-1.625.233-.464.932-.696 1.63-.464l7.45 4.18c.466.231.699.928.466 1.624-.466.465-.699.697-1.164.697zM802.542 508.816c-.233 0-.466 0-.466-.232l-4.656-2.786c-.466-.232-.698-.93-.466-1.626.233-.464.932-.696 1.63-.464l4.656 2.786c.466.232.699.929.466 1.625-.466.465-.698.697-1.164.697zm-9.546-5.34c-.233 0-.466 0-.466-.232l-4.656-2.786c-.466-.233-.698-.929-.466-1.626.233-.464.932-.696 1.63-.464l4.656 2.786c.466.232.699.929.466 1.625-.466.465-.698.697-1.164.697zm-9.546-5.572c-.232 0-.465 0-.465-.232l-4.656-2.786c-.466-.233-.698-.929-.466-1.626.233-.464.932-.696 1.63-.464l4.656 2.786c.466.232.699.929.466 1.625-.466.465-.698.697-1.164.697zm-9.544-5.572c-.233 0-.466 0-.466-.232l-4.656-2.786c-.466-.233-.698-.929-.466-1.626.233-.464.932-.696 1.63-.464l4.656 2.786c.466.232.699.929.466 1.625-.466.465-.698.697-1.164.697zm-246.552-68.26c-.233 0-.466 0-.466-.232l-4.656-2.786c-.466-.232-.698-.93-.466-1.626.233-.464.932-.696 1.63-.464l4.656 2.786c.466.232.699.929.466 1.625-.233.465-.698.697-1.164.697zm-9.546-5.572c-.233 0-.466 0-.466-.232l-4.656-2.786c-.466-.233-.698-.929-.466-1.626.233-.464.932-.696 1.63-.464l4.656 2.786c.466.232.699.929.466 1.625-.233.465-.698.697-1.164.697zm-9.545-5.573c-.233 0-.466 0-.466-.232l-4.656-2.786c-.466-.232-.698-.929-.466-1.626.233-.464.932-.696 1.63-.464l4.656 2.786c.466.232.699.929.466 1.625-.233.697-.698.697-1.164.697zm-9.545-5.34c-.233 0-.466 0-.466-.232l-4.656-2.786c-.466-.233-.698-.929-.466-1.626.233-.464.932-.696 1.63-.464l4.656 2.786c.466.232.699.929.466 1.625-.233.465-.698.697-1.164.697zm-204.645-12.769c-.233 0-.466 0-.466-.232l-4.656-2.786c-.466-.232-.698-.929-.466-1.626.233-.464.932-.696 1.63-.464l4.656 2.786c.466.232.699.929.466 1.625-.466.465-.698.697-1.164.697zm-9.545-5.573c-.233 0-.466 0-.466-.232l-4.656-2.786c-.466-.233-.698-.929-.466-1.626.233-.464.932-.696 1.63-.464l4.656 2.786c.466.232.699.929.466 1.625-.466.465-.698.697-1.164.697zm-9.545-5.34c-.233 0-.466 0-.466-.232l-4.656-2.786c-.466-.233-.698-.929-.466-1.626.233-.464.932-.696 1.63-.464l4.656 2.786c.466.232.699.929.466 1.625-.466.465-.698.697-1.164.697zm-9.546-5.572c-.233 0-.466 0-.466-.232l-4.656-2.786c-.466-.232-.698-.929-.466-1.626.233-.464.932-.696 1.63-.464l4.656 2.786c.466.232.699.929.466 1.625-.466.465-.698.697-1.164.697z" fill="#fff" fill-opacity=".2"/><g fill="#fff" fill-opacity=".2"><path d="M1023.107 299.552c-.233 0-.466 0-.466-.232l-144.113-82.887c-29.567-16.95-40.277-38.077-29.334-57.58 16.995-30.647 87.771-52.24 150.864-19.503.466.232.699.929.466 1.625-.233.465-.932.697-1.63.465-61.929-32.273-131.308-11.377-147.605 18.574-10.011 18.342.233 38.309 28.636 54.561l143.182 82.423 55.41-32.04c18.159-10.448 28.171-24.379 28.171-39.006 0-14.627-10.012-28.558-28.171-39.006l-44.933-25.771c-.466-.232-.699-.929-.466-1.625.233-.465.931-.697 1.63-.465l44.933 25.772c18.858 10.912 29.335 25.307 29.335 40.863 0 15.556-10.477 29.951-29.335 40.863l-56.109 32.737c0 .232-.232.232-.465.232z"/><path d="M895.757 212.022c-1.862 0-3.725-.465-5.354-1.161-19.324-11.145-29.335-23.682-29.568-36.684-.233-11.377 7.45-22.289 21.652-30.88l1.397-.696c2.794-1.625 7.683-1.625 10.477 0 1.63.929 2.56 2.322 2.56 3.715 0 1.393-.93 2.786-2.56 3.715l-1.164.696c-10.71 6.501-16.763 14.86-16.53 23.45 0 10.216 8.614 20.2 24.212 29.486 1.63.93 2.561 2.322 2.561 3.715 0 1.393-.93 2.786-2.56 3.715-1.397.464-3.26.929-5.123.929zm-6.518-68.725c-1.63 0-3.027.465-4.191.93l-1.397.696c-13.27 8.126-20.72 18.342-20.488 28.79.233 12.073 10.011 23.914 28.404 34.594 2.095 1.16 6.053 1.16 8.148 0 .932-.464 1.397-1.161 1.397-1.625 0-.465-.465-1.161-1.397-1.626-16.53-9.519-25.377-20.431-25.377-31.343 0-9.52 6.287-18.575 17.694-25.54l1.165-.696c.93-.465 1.396-1.161 1.396-1.626 0-.464-.465-1.16-1.396-1.625-.932-.464-2.561-.929-3.958-.929zm127.582 22.522c-6.751 0-13.27-1.626-18.16-4.412-5.121-3.018-7.915-6.965-7.915-11.144 0-4.18 2.794-8.126 7.916-11.145 4.889-2.786 11.175-4.411 18.16-4.411 6.751 0 13.27 1.625 18.159 4.411 5.122 3.019 7.916 6.966 7.916 11.145 0 4.179-2.794 8.126-7.916 11.144-4.89 2.786-11.408 4.412-18.16 4.412zm0-28.558c-6.519 0-12.339 1.393-16.995 3.947-4.19 2.554-6.752 5.804-6.752 9.055 0 3.482 2.328 6.5 6.752 9.055 4.423 2.554 10.476 3.947 16.995 3.947 6.52 0 12.34-1.393 16.996-3.947 4.19-2.554 6.752-5.805 6.752-9.055 0-3.483-2.329-6.501-6.752-9.055-4.656-2.554-10.71-3.947-16.996-3.947zm44.472 81.494c-.466 0-.932-.465-1.165-.929l-.698-3.482c0-.233 0-.697.233-.93.233-.231.465-.464.931-.464l10.477-.696 1.164-5.572c0-.465.698-.929 1.164-.929l6.053.464c.233 0 .699.233.931.465.233.232.233.696.233.928l-1.63 9.288c0 .464-.465.928-1.164.928l-16.53.929c.233 0 .233 0 0 0zm.698-3.483l.233 1.161 14.202-.929 1.164-7.197-3.725-.232-1.165 5.572c0 .464-.465.929-1.164.929l-9.545.696zm-15.838-5.34c-.466 0-.932-.464-1.165-.929l-.698-3.482c0-.233 0-.697.233-.93.233-.231.465-.464.931-.464l10.477-.696 1.164-5.572c0-.465.698-.929 1.164-.929l6.053.464c.233 0 .699.233.931.465.233.232.233.696.233.928l-1.63 9.288c0 .464-.465.928-1.164.928l-16.53.929zm.698-3.483l.233 1.161 14.201-.929 1.165-7.197-3.726-.232-1.164 5.572c0 .464-.465.929-1.164.929l-9.545.696zm-16.058-5.34c-.466 0-.932-.465-1.165-.929l-.698-3.482c0-.233 0-.697.233-.93.233-.231.465-.464.931-.464l10.477-.696 1.164-5.572c0-.465.698-.929 1.164-.929l6.053.464c.233 0 .699.233.931.465.233.232.233.696.233.928l-1.63 9.288c0 .464-.465.928-1.164.928l-16.53.929zm.698-3.483l.233 1.161 14.202-.929 1.396-7.197-3.725-.232-1.164 5.572c0 .464-.465.929-1.164.929l-9.778.696z"/><path d="M1016.821 160.942c-4.656 0-8.847-.929-12.106-3.018-3.492-2.09-5.355-4.644-5.355-7.662s1.863-5.572 5.355-7.662c3.26-1.857 7.683-3.018 12.106-3.018 4.656 0 8.847.929 12.107 3.018 3.492 2.09 5.354 4.644 5.354 7.662s-1.862 5.572-5.354 7.662c-3.26 1.857-7.45 3.018-12.107 3.018zm0-18.806c-4.19 0-8.148.929-10.942 2.554-2.794 1.625-4.19 3.483-4.19 5.572 0 2.09 1.396 4.18 4.19 5.572 3.026 1.626 6.752 2.554 10.942 2.554s8.149-.928 10.942-2.554c2.794-1.625 4.191-3.482 4.191-5.572s-1.397-4.179-4.19-5.572c-2.794-1.625-6.752-2.554-10.943-2.554zm-4.196 40.399c-2.328 0-4.656-.464-6.518-1.625-1.863-1.161-3.027-2.786-3.027-4.411 0-1.626 1.164-3.25 3.027-4.412 3.492-2.09 9.545-2.09 13.037 0 1.863 1.161 3.027 2.786 3.027 4.412 0 1.625-1.164 3.25-3.027 4.41-1.862 1.162-4.19 1.626-6.519 1.626zm0-9.52c-2.095 0-3.957.465-5.354 1.162-1.164.696-1.863 1.625-1.863 2.322 0 .928.699 1.625 1.863 2.321 2.793 1.626 7.915 1.626 10.71 0 1.163-.696 1.862-1.625 1.862-2.321 0-.93-.699-1.626-1.863-2.322-1.397-.697-3.26-1.161-5.355-1.161zm-26.536 43.418c-.233 0-.466 0-.466-.233l-36.086-20.663c-.466-.233-.698-.929-.466-1.626.233-.464.932-.696 1.63-.464l36.086 20.664c.466.232.699.928.466 1.625-.466.464-.698.697-1.164.697zm-74.966 4.411c-2.096 0-3.958-.465-5.355-1.393-1.63-.93-2.561-2.322-2.561-3.715 0-1.393.931-2.786 2.561-3.715 2.794-1.625 7.683-1.625 10.71 0 1.63.929 2.56 2.322 2.56 3.715 0 1.393-.93 2.786-2.56 3.715-1.397.928-3.26 1.393-5.355 1.393zm0-7.662c-1.63 0-3.027.464-4.191.929-.931.464-1.397 1.16-1.397 1.625 0 .696.466 1.16 1.397 1.625 2.095 1.16 6.053 1.16 8.381 0 .932-.464 1.397-1.16 1.397-1.625 0-.697-.465-1.161-1.397-1.625-1.164-.697-2.56-.93-4.19-.93zm15.599 16.485c-2.096 0-3.958-.465-5.355-1.393-1.63-.93-2.561-2.322-2.561-3.715 0-1.393.931-2.786 2.56-3.715 2.795-1.625 7.684-1.625 10.71 0 1.63.929 2.561 2.322 2.561 3.715 0 1.393-.93 2.786-2.56 3.715-1.397.928-3.26 1.393-5.355 1.393zm0-7.662c-1.63 0-3.027.464-4.191.929-.931.464-1.397 1.16-1.397 1.625 0 .696.466 1.16 1.397 1.625 2.095 1.16 6.053 1.16 8.381 0 .932-.464 1.397-1.16 1.397-1.625 0-.697-.465-1.161-1.397-1.625-1.164-.465-2.56-.93-4.19-.93zm15.598 16.717c-2.095 0-3.957-.465-5.354-1.393-1.63-.93-2.561-2.322-2.561-3.715 0-1.393.931-2.786 2.561-3.715 2.794-1.625 7.683-1.625 10.71 0 1.63.929 2.56 2.322 2.56 3.715 0 1.393-.93 2.786-2.56 3.715-1.397.928-3.26 1.393-5.355 1.393zm0-7.662c-1.629 0-3.026.464-4.19.929-.931.464-1.397 1.16-1.397 1.625 0 .696.466 1.16 1.397 1.625 2.095 1.16 6.053 1.16 8.381 0 .932-.464 1.397-1.16 1.397-1.625 0-.697-.465-1.161-1.397-1.625-1.164-.697-2.56-.93-4.19-.93zm20.487-21.592c-.233 0-.466 0-.466-.232l-4.423-2.554c-.466-.233-.698-.929-.466-1.626.233-.464.932-.696 1.63-.464l4.424 2.554c.465.232.698.929.465 1.625-.465.697-.931.697-1.164.697zm-8.846-4.876c-.233 0-.466 0-.466-.232l-4.423-2.554c-.466-.233-.698-.929-.466-1.626.233-.464.932-.696 1.63-.464l4.424 2.554c.465.232.698.929.465 1.625-.465.465-.931.697-1.164.697zm-8.847-5.108c-.233 0-.466 0-.466-.232l-4.423-2.554c-.466-.232-.698-.929-.466-1.626.233-.464.932-.696 1.63-.464l4.424 2.554c.465.232.698.929.465 1.625-.465.465-.931.697-1.164.697zm-8.847-5.108c-.233 0-.466 0-.466-.232l-4.423-2.554c-.466-.232-.698-.929-.466-1.626.233-.464.932-.696 1.63-.464l4.424 2.554c.465.232.698.929.465 1.625-.465.465-.698.697-1.164.697zm95.915 36.916c-.233 0-.466 0-.466-.232l-12.339-7.197c-.466-.233-.698-.929-.466-1.626.233-.464.932-.696 1.63-.464l12.34 7.198c.465.232.698.928.465 1.625-.466.696-.931.696-1.164.696zm-25.372-14.395c-.233 0-.466 0-.466-.232l-12.339-7.197c-.466-.232-.698-.929-.466-1.626.233-.464.932-.696 1.63-.464l12.34 7.198c.465.232.698.928.465 1.625-.466.464-.698.696-1.164.696zm-25.377-14.627c-.233 0-.466 0-.466-.232l-12.339-7.197c-.466-.233-.698-.929-.466-1.626.233-.464.932-.696 1.63-.464l12.34 7.198c.465.232.698.928.465 1.625-.466.464-.699.696-1.164.696zm-25.377-14.627c-.233 0-.466 0-.466-.232l-12.339-7.197c-.466-.233-.698-.929-.466-1.626.233-.464.932-.696 1.63-.464l12.34 7.198c.465.232.698.928.465 1.625-.233.464-.699.696-1.164.696z"/></g><path d="M1024.149 329.841c-2.096 0-4.191-.464-5.588-1.393-1.63-.929-2.561-2.322-2.561-3.947s.931-3.018 2.794-3.947c3.026-1.857 8.148-1.857 11.175 0 1.63.929 2.794 2.322 2.794 3.947s-.932 3.018-2.561 3.947c-1.863.929-3.958 1.393-6.053 1.393zm0-8.126c-1.63 0-3.26.464-4.424 1.16-.931.465-1.63 1.162-1.63 1.858 0 .697.466 1.393 1.397 1.858 2.328 1.393 6.752 1.393 9.08 0 .931-.465 1.397-1.161 1.397-1.858 0-.696-.466-1.393-1.63-1.857-.931-.929-2.56-1.161-4.19-1.161z" fill="#fff" fill-opacity=".2"/><g opacity=".3"><path d="M473.676 153.166l20.572 12.74M473.676 72l20.572 12.74M414 127h-86m-46 0H28.5m411.027-26.03V1m34.149 238.065l20.572 11.508m-54.721-82.2v25.07M306 168.373v25.07" stroke="#2E78F6" stroke-linecap="round" stroke-dasharray="1 2"/><path d="M131 150.559l-131-75L127.634.925c2.057-1.233 4.938-1.233 6.995 0L263 74.559l-132 76z" transform="translate(512 185)" fill="url(#a)"/><path d="M643 335.559v46l-130.914-76.034-.086-44.966 131 75z" fill="#fff"/><path d="M775 259.559v45.966l-132 76.034v-46l132-76z" fill="#FF6B00"/><path d="M0 7.398l17.026 9.476V9.886L0 0v7.398z" fill="url(#b)" transform="translate(613 331.645)"/><path d="M0 20.414l17.026 9.476v-6.987L0 13.016v7.398z" fill="url(#c)" transform="translate(613 331.645)"/><path d="M552.82 312.923l-28.39-16.029m28.39 4.932l-28.39-16.44 28.39 16.44z" stroke="#0070FC" stroke-width=".891" stroke-linecap="round"/><path d="M131 150.559l-131-75L127.634.925c2.057-1.233 4.938-1.233 6.995 0L263 74.559l-132 76z" transform="translate(669 275)" fill="url(#d)"/><path d="M800 425.559v46l-130.914-76.034-.086-44.966 131 75z" fill="#fff"/><path d="M932 349.559v45.966l-132 76.034v-46l132-76z" fill="#FF6B00"/><path d="M0 7.398l17.026 9.476V9.886L0 0v7.398z" fill="url(#e)" transform="translate(770 421.645)"/><path d="M0 20.414l17.026 9.476v-6.987L0 13.016v7.398z" fill="url(#f)" transform="translate(770 421.645)"/><path d="M709.82 402.923l-28.39-16.029m28.39 4.932l-28.39-16.44 28.39 16.44z" stroke="#0070FC" stroke-width=".891" stroke-linecap="round"/><path d="M131 150.559l-131-75L127.634.925c2.057-1.233 4.938-1.233 6.995 0L263 74.559l-132 76z" transform="translate(512 101)" fill="url(#g)"/><path d="M643 251.559v46l-130.914-76.034-.086-44.966 131 75z" fill="#fff"/><path d="M775 175.559v45.966l-132 76.034v-46l132-76z" fill="#FF6B00"/><path d="M0 7.398l17.026 9.476V9.886L0 0v7.398z" fill="url(#h)" transform="translate(613 247.645)"/><path d="M0 20.414l17.026 9.476v-6.987L0 13.016v7.398z" fill="url(#i)" transform="translate(613 247.645)"/><path d="M552.82 228.923l-28.39-16.029m28.39 4.932l-28.39-16.44 28.39 16.44z" stroke="#0070FC" stroke-width=".891" stroke-linecap="round"/><path d="M131 150.559l-131-75L127.634.925c2.057-1.233 4.938-1.233 6.995 0L263 74.559l-132 76z" transform="translate(512 18)" fill="url(#j)"/><path d="M643 168.559v46l-130.914-76.034L512 93.559l131 75z" fill="#fff"/><path d="M775 92.559v45.966l-132 76.034v-46l132-76z" fill="#FF6B00"/><path d="M0 7.398l17.026 9.476V9.886L0 0v7.398z" fill="url(#k)" transform="translate(613 164.645)"/><path d="M0 20.414l17.026 9.476v-6.987L0 13.016v7.398z" fill="url(#l)" transform="translate(613 164.645)"/><path d="M552.82 145.923l-28.39-16.029m28.39 4.932l-28.39-16.44 28.39 16.44z" stroke="#0070FC" stroke-width=".891" stroke-linecap="round"/><path d="M131 150.559l-131-75L127.634.925c2.057-1.233 4.938-1.233 6.995 0L263 74.559l-132 76z" transform="translate(669 191)" fill="url(#m)"/><path d="M800 341.559v46l-130.914-76.034-.086-44.966 131 75z" fill="#fff"/><path d="M932 265.559v45.966l-132 76.034v-46l132-76z" fill="#FF6B00"/><path d="M0 7.398l17.026 9.476V9.886L0 0v7.398z" fill="url(#n)" transform="translate(770 337.645)"/><path d="M0 20.414l17.026 9.476v-6.987L0 13.016v7.398z" fill="url(#o)" transform="translate(770 337.645)"/><path d="M709.82 318.923l-28.39-16.029m28.39 4.932l-28.39-16.44 28.39 16.44z" stroke="#0070FC" stroke-width=".891" stroke-linecap="round"/><path d="M131 150.559l-131-75L127.634.925c2.057-1.233 4.938-1.233 6.995 0L263 74.559l-132 76z" transform="translate(829 368)" fill="url(#p)"/><path d="M960 518.559v46l-130.914-76.034-.086-44.966 131 75z" fill="#fff"/><path d="M1092 442.559v45.966l-132 76.034v-46l132-76z" fill="#FF6B00"/><path d="M0 7.398l17.026 9.476V9.886L0 0v7.398z" fill="url(#q)" transform="translate(930 514.645)"/><path d="M0 20.414l17.026 9.476v-6.987L0 13.016v7.398z" fill="url(#r)" transform="translate(930 514.645)"/><path d="M869.82 495.923l-28.39-16.029m28.39 4.932l-28.39-16.44 28.39 16.44z" stroke="#0070FC" stroke-width=".891" stroke-linecap="round"/><path d="M435.412 122.753l9.463 5.343v11.508c0 .41-.412.41-.412.41L435 134.673v-11.508c0-.411.412-.411.412-.411zm0 91.241l9.463 5.343v11.508c0 .411-.412.411-.412.411L435 225.913v-11.508c0-.41.412-.41.412-.41z" fill="#fff"/><path d="M435.412 122.753l9.463 5.343v11.508c0 .41-.412.41-.412.41L435 134.673v-11.508c0-.411.412-.411.412-.411zm0 91.241l9.463 5.343v11.508c0 .411-.412.411-.412.411L435 225.913v-11.508c0-.41.412-.41.412-.41z" stroke="#fff" stroke-width=".891"/><path d="M473.676 153.414l20.572 12.74m-20.572 73.158l20.572 11.508" stroke="#2E78F6" stroke-linecap="round" stroke-dasharray="1 2"/><path d="M435.412 123l9.463 5.343v11.508c0 .41-.412.41-.412.41L435 134.92v-11.51c0-.411.412-.411.412-.411zm0 91.241l9.463 5.343v11.508c0 .411-.412.411-.412.411L435 226.16v-11.508c0-.41.412-.41.412-.41z" fill="#fff"/><path d="M435.412 123l9.463 5.343v11.508c0 .41-.412.41-.412.41L435 134.92v-11.51c0-.411.412-.411.412-.411zm0 91.241l9.463 5.343v11.508c0 .411-.412.411-.412.411L435 226.16v-11.508c0-.41.412-.41.412-.41z" stroke="#fff" stroke-width=".891"/><path d="M1123.53 511.373v25.07M960 593v25.07m197.68-121.656l20.572 12.74m-20.572 73.158l20.572 11.508" stroke="#2E78F6" stroke-linecap="round" stroke-dasharray="1 2"/><path d="M1119.412 466l9.463 5.343v11.508c0 .41-.412.41-.412.41L1119 477.92v-11.51c0-.411.412-.411.412-.411zm0 91.241l9.463 5.343v11.508c0 .411-.412.411-.412.411L1119 569.16v-11.508c0-.41.412-.41.412-.41z" fill="#fff"/><path d="M1119.412 466l9.463 5.343v11.508c0 .41-.412.41-.412.41L1119 477.92v-11.51c0-.411.412-.411.412-.411zm0 91.241l9.463 5.343v11.508c0 .411-.412.411-.412.411L1119 569.16v-11.508c0-.41.412-.41.412-.41z" stroke="#fff" stroke-width=".891"/><path d="M300.412 120l9.463 5.343v11.508c0 .41-.412.41-.412.41L300 131.92v-11.51c0-.411.412-.411.412-.411z" fill="#fff"/><path d="M300.412 120l9.463 5.343v11.508c0 .41-.412.41-.412.41L300 131.92v-11.51c0-.411.412-.411.412-.411z" stroke="#fff" stroke-width=".891"/><path d="M1.412 120l9.463 5.343v11.508c0 .41-.412.41-.412.41L1 131.92v-11.51c0-.411.412-.411.412-.411z" fill="#fff"/><path d="M1.412 120l9.463 5.343v11.508c0 .41-.412.41-.412.41L1 131.92v-11.51c0-.411.412-.411.412-.411z" stroke="#fff" stroke-width=".891"/></g></g><defs><linearGradient id="a" x2="1" gradientUnits="userSpaceOnUse" gradientTransform="matrix(263.255 0 0 195.072 -.088 .099)"><stop offset=".001" stop-color="#2E78F6"/><stop offset=".408" stop-color="#2851DA"/><stop offset="1" stop-color="#1E12AC"/></linearGradient><linearGradient id="b" x2="1" gradientUnits="userSpaceOnUse" gradientTransform="matrix(77.847 0 0 55.238 -44.33 -25.836)"><stop stop-color="#0069FF" stop-opacity=".6"/><stop offset=".999" stop-color="#0069FF" stop-opacity=".2"/></linearGradient><linearGradient id="c" x2="1" gradientUnits="userSpaceOnUse" gradientTransform="matrix(77.847 0 0 55.238 -44.33 -25.836)"><stop stop-color="#0069FF" stop-opacity=".6"/><stop offset=".999" stop-color="#0069FF" stop-opacity=".2"/></linearGradient><linearGradient id="d" x2="1" gradientUnits="userSpaceOnUse" gradientTransform="matrix(263.255 0 0 195.072 -.088 .099)"><stop offset=".001" stop-color="#2E78F6"/><stop offset=".408" stop-color="#2851DA"/><stop offset="1" stop-color="#1E12AC"/></linearGradient><linearGradient id="e" x2="1" gradientUnits="userSpaceOnUse" gradientTransform="matrix(77.847 0 0 55.238 -44.33 -25.836)"><stop stop-color="#0069FF" stop-opacity=".6"/><stop offset=".999" stop-color="#0069FF" stop-opacity=".2"/></linearGradient><linearGradient id="f" x2="1" gradientUnits="userSpaceOnUse" gradientTransform="matrix(77.847 0 0 55.238 -44.33 -25.836)"><stop stop-color="#0069FF" stop-opacity=".6"/><stop offset=".999" stop-color="#0069FF" stop-opacity=".2"/></linearGradient><linearGradient id="g" x2="1" gradientUnits="userSpaceOnUse" gradientTransform="matrix(263.255 0 0 195.072 -.088 .099)"><stop offset=".001" stop-color="#2E78F6"/><stop offset=".408" stop-color="#2851DA"/><stop offset="1" stop-color="#1E12AC"/></linearGradient><linearGradient id="h" x2="1" gradientUnits="userSpaceOnUse" gradientTransform="matrix(77.847 0 0 55.238 -44.33 -25.836)"><stop stop-color="#0069FF" stop-opacity=".6"/><stop offset=".999" stop-color="#0069FF" stop-opacity=".2"/></linearGradient><linearGradient id="i" x2="1" gradientUnits="userSpaceOnUse" gradientTransform="matrix(77.847 0 0 55.238 -44.33 -25.836)"><stop stop-color="#0069FF" stop-opacity=".6"/><stop offset=".999" stop-color="#0069FF" stop-opacity=".2"/></linearGradient><linearGradient id="j" x2="1" gradientUnits="userSpaceOnUse" gradientTransform="matrix(263.255 0 0 195.072 -.088 .099)"><stop offset=".001" stop-color="#2E78F6"/><stop offset=".408" stop-color="#2851DA"/><stop offset="1" stop-color="#1E12AC"/></linearGradient><linearGradient id="k" x2="1" gradientUnits="userSpaceOnUse" gradientTransform="matrix(77.847 0 0 55.238 -44.33 -25.836)"><stop stop-color="#0069FF" stop-opacity=".6"/><stop offset=".999" stop-color="#0069FF" stop-opacity=".2"/></linearGradient><linearGradient id="l" x2="1" gradientUnits="userSpaceOnUse" gradientTransform="matrix(77.847 0 0 55.238 -44.33 -25.836)"><stop stop-color="#0069FF" stop-opacity=".6"/><stop offset=".999" stop-color="#0069FF" stop-opacity=".2"/></linearGradient><linearGradient id="m" x2="1" gradientUnits="userSpaceOnUse" gradientTransform="matrix(263.255 0 0 195.072 -.088 .099)"><stop offset=".001" stop-color="#2E78F6"/><stop offset=".408" stop-color="#2851DA"/><stop offset="1" stop-color="#1E12AC"/></linearGradient><linearGradient id="n" x2="1" gradientUnits="userSpaceOnUse" gradientTransform="matrix(77.847 0 0 55.238 -44.33 -25.836)"><stop stop-color="#0069FF" stop-opacity=".6"/><stop offset=".999" stop-color="#0069FF" stop-opacity=".2"/></linearGradient><linearGradient id="o" x2="1" gradientUnits="userSpaceOnUse" gradientTransform="matrix(77.847 0 0 55.238 -44.33 -25.836)"><stop stop-color="#0069FF" stop-opacity=".6"/><stop offset=".999" stop-color="#0069FF" stop-opacity=".2"/></linearGradient><linearGradient id="p" x2="1" gradientUnits="userSpaceOnUse" gradientTransform="matrix(263.255 0 0 195.072 -.088 .099)"><stop offset=".001" stop-color="#2E78F6"/><stop offset=".408" stop-color="#2851DA"/><stop offset="1" stop-color="#1E12AC"/></linearGradient><linearGradient id="q" x2="1" gradientUnits="userSpaceOnUse" gradientTransform="matrix(77.847 0 0 55.238 -44.33 -25.836)"><stop stop-color="#0069FF" stop-opacity=".6"/><stop offset=".999" stop-color="#0069FF" stop-opacity=".2"/></linearGradient><linearGradient id="r" x2="1" gradientUnits="userSpaceOnUse" gradientTransform="matrix(77.847 0 0 55.238 -44.33 -25.836)"><stop stop-color="#0069FF" stop-opacity=".6"/><stop offset=".999" stop-color="#0069FF" stop-opacity=".2"/></linearGradient></defs></svg>