<svg width="69" height="70" viewBox="0 0 69 70" xmlns="http://www.w3.org/2000/svg"><g fill="none"><path d="M4 70v-2h42v2H4z" fill="#3D5984"/><path d="M1 63h48.093V1H17.305L1 16.643V63z" fill="#fff"/><path d="M1 63h48.093V1H17.305L1 16.643V63zm8-33h7M9 40h17M9 46h17M9 52h17" stroke="#021E4D" stroke-width="2" stroke-miterlimit="10"/><path d="M49.5 50C59.717 50 68 41.941 68 32s-8.283-18-18.5-18S31 22.059 31 32s8.283 18 18.5 18z" fill="#fff"/><path d="M68 32c0 9.941-8.283 18-18.5 18S31 41.941 31 32s8.283-18 18.5-18S68 22.059 68 32z" stroke="#0070FC" stroke-width="2" stroke-miterlimit="10"/><path d="M17.305 1v17.127H9.563" stroke="#021E4D" stroke-width="2" stroke-miterlimit="10"/><path d="M46.92 43V23h4.97c2.294 0 4.11 1.792 4.11 4.057v2.735c0 2.265-1.816 4.057-4.11 4.057H43m0 4.34h11.949" stroke="#0070FC" stroke-width="2" stroke-miterlimit="10"/></g></svg>