<svg width="65" height="62" viewBox="0 0 65 62" xmlns="http://www.w3.org/2000/svg"><g fill="none"><path d="M45.865 48.803c9.984 0 18.077-8.093 18.077-18.076s-8.093-18.076-18.077-18.076c-9.983 0-18.077 8.093-18.077 18.076s8.094 18.076 18.077 18.076z" fill="#021E4D" fill-opacity=".4"/><path d="M63.942 30.727c0 9.983-8.093 18.076-18.077 18.076-9.983 0-18.077-8.093-18.077-18.076s8.094-18.076 18.077-18.076c9.984 0 18.077 8.093 18.077 18.076z" stroke-width="2" stroke-miterlimit="10" stroke="#0070FC"/><path d="M43.487 41.8V21.4h5.102c2.355 0 4.22 1.828 4.22 4.138v2.79c0 2.31-1.865 4.138-4.22 4.138h-9.125m0 4.426h12.265" stroke-width="3" stroke-miterlimit="10" stroke="#FF6B00"/><path d="M8.623 31.38h12.305M8.623 40.092h12.305M8.623 48.803h12.305M45.647 8.732V1.001h-29.51L1 15.919v44.21h44.647V53.05" stroke-width="2" stroke-miterlimit="10" stroke="#0070FC"/><path d="M16.136 1v16.334H8.95" stroke-width="2" stroke-miterlimit="10" stroke="#0070FC"/></g></svg>