<svg width="61" height="74" viewBox="0 0 61 74" xmlns="http://www.w3.org/2000/svg"><g fill="none"><path d="M57.103 43.836c0 15.342-12.335 27.78-27.551 27.78C14.335 71.615 2 59.177 2 43.835s12.335-27.78 27.552-27.78c15.216 0 27.551 12.438 27.551 27.78z" stroke-width="3" stroke-miterlimit="10" stroke="#0070FC"/><path d="M29.474 67.692c13.006 0 23.549-10.714 23.549-23.93 0-13.217-10.543-23.931-23.55-23.931-13.005 0-23.548 10.714-23.548 23.93 0 13.217 10.543 23.931 23.549 23.931z" fill="#021E4D" fill-opacity=".4"/><path d="M50.505 14.072c3.473 2.451 6.367 5.486 8.798 8.988M20.754 9.52V6a5 5 0 0 1 5-5h8.175a5 5 0 0 1 5 5v3.52m-9.377-1.4v13.072" stroke-width="2" stroke-miterlimit="10" stroke="#0070FC"/><path d="M43.675 29.596l-9.884 10.242m-8.407 8.2l-3.357 3.385" stroke-width="2" stroke-miterlimit="10" stroke-linecap="round" stroke-linejoin="round" stroke="#FF6B00"/><path d="M29.552 71.615v-5.719" stroke-width="2" stroke-miterlimit="10" stroke="#0070FC"/><path d="M29.552 49.28c3.005 0 5.44-2.447 5.44-5.465s-2.435-5.465-5.44-5.465c-3.005 0-5.441 2.447-5.441 5.465s2.436 5.465 5.44 5.465z" fill="#093191"/><path d="M34.993 43.815c0 3.018-2.436 5.465-5.441 5.465s-5.441-2.447-5.441-5.465 2.436-5.465 5.44-5.465c3.006 0 5.442 2.447 5.442 5.465z" stroke-width="3" stroke-miterlimit="10" stroke="#0070FC"/><path d="M49.116 63.445l-4.052-4.085M14.04 28.196l-3.936-4.086M57.22 43.836h-5.79m-43.758 0H2M14.04 59.36l-3.936 4.085" stroke-width="2" stroke-miterlimit="10" stroke="#0070FC"/></g></svg>