<svg width="60" height="64" viewBox="0 0 60 64" xmlns="http://www.w3.org/2000/svg"><g fill="none"><path d="M35.462 64V47.776h4.668V26.69a5.644 5.644 0 0 0-5.66-5.632h-9.138c-3.078 0-5.66 2.47-5.66 5.632v20.987h4.667V63.9" fill="#021E4D" fill-opacity=".4"/><path d="M35.462 64V47.776h4.668V26.69a5.644 5.644 0 0 0-5.66-5.632h-9.138c-3.078 0-5.66 2.47-5.66 5.632v20.987h4.667V63.9" stroke-width="2" stroke-miterlimit="10" stroke="#0070FC"/><path d="M29.9 14.833c3.84 0 6.953-3.097 6.953-6.917S33.74 1 29.9 1c-3.84 0-6.952 3.097-6.952 6.916 0 3.82 3.112 6.917 6.952 6.917z" fill="#021E4D" fill-opacity=".4"/><path d="M36.853 7.916c0 3.82-3.113 6.917-6.952 6.917-3.84 0-6.952-3.097-6.952-6.917S26.06 1 29.9 1s6.952 3.097 6.952 6.916zm17.479 53.948V49.316H59v-16.5a5.644 5.644 0 0 0-5.661-5.633h-9.137m10.925-12.449c0 3.438-2.802 6.225-6.257 6.225-3.456 0-6.257-2.787-6.257-6.225 0-3.438 2.801-6.225 6.257-6.225 3.455 0 6.257 2.787 6.257 6.225zM5.668 61.864V49.316H1v-16.5a5.644 5.644 0 0 1 5.661-5.632h9.137m1.589-12.45c0 3.438-2.802 6.225-6.257 6.225-3.456 0-6.257-2.787-6.257-6.225 0-3.438 2.801-6.225 6.257-6.225 3.455 0 6.257 2.787 6.257 6.225z" stroke-width="2" stroke-miterlimit="10" stroke="#0070FC"/></g></svg>