<svg width="62" height="64" viewBox="0 0 62 64" xmlns="http://www.w3.org/2000/svg"><g stroke-miterlimit="10" stroke-linecap="round" stroke-linejoin="round" fill="none"><path d="M42.99 48.577c-3.43 2.58-7.588 4.025-12.16 4.025-11.122 0-20.164-8.979-20.164-20.022s9.042-20.02 20.163-20.02c2.494 0 4.989.412 7.171 1.341" stroke-width="3" stroke="#0070FC"/><path d="M60.658 32.58c0 16.307-13.304 29.62-29.83 29.62C14.305 62.2 1 48.99 1 32.58S14.303 3.064 30.829 3.064c4.885 0 9.562 1.135 13.615 3.302" stroke-width="2" stroke="#0070FC"/><path d="M44.444 6.263L47.562 1l4.365 16.306-14.758 4.232" stroke-width="2" stroke="#0070FC"/><path d="M41.118 39.392V26.698l-7.067 9.288h11.225m-14.032 3.303H23.97v-.929c0-2.683 6.86-2.89 7.691-7.327.624-2.993-1.663-4.748-3.845-4.748-1.975 0-3.95 1.239-3.95 4.025" stroke-width="3" stroke="#FF6B00"/></g></svg>