<svg width="285" height="30" viewBox="0 0 285 30" xmlns="http://www.w3.org/2000/svg"><g fill="none"><path d="M15.232 17.656c0 1.685-.63 3.04-1.888 4.064-1.237 1.024-2.816 1.536-4.736 1.536-1.28 0-2.613-.224-4-.672a12.058 12.058 0 0 1-3.744-2.048l2.112-3.008c1.792 1.387 3.701 2.08 5.728 2.08.619 0 1.11-.117 1.472-.352.363-.256.544-.587.544-.992s-.256-.779-.768-1.12c-.49-.341-1.216-.661-2.176-.96-.939-.299-1.664-.555-2.176-.768a12.799 12.799 0 0 1-1.696-.928c-1.301-.81-1.952-2.005-1.952-3.584 0-1.6.64-2.901 1.92-3.904 1.28-1.003 2.933-1.504 4.96-1.504s4.053.683 6.08 2.048l-1.792 3.2c-1.493-1.024-2.987-1.536-4.48-1.536-1.472 0-2.208.405-2.208 1.216 0 .448.235.8.704 1.056.47.256 1.248.555 2.336.896 1.088.341 1.856.608 2.304.8.47.17 1.024.448 1.664.832 1.195.725 1.792 1.941 1.792 3.648zm18.577 2.848c-1.941 1.835-4.224 2.752-6.848 2.752-2.603 0-4.757-.8-6.464-2.4-1.707-1.621-2.56-3.787-2.56-6.496 0-2.71.864-4.864 2.592-6.464 1.75-1.6 3.808-2.4 6.176-2.4 2.368 0 4.373.715 6.016 2.144 1.664 1.43 2.496 3.392 2.496 5.888v2.56H22.673c.15.939.64 1.707 1.472 2.304.832.597 1.77.896 2.816.896 1.685 0 3.072-.565 4.16-1.696l2.688 2.912zm-3.456-7.84c-.107-1.024-.49-1.813-1.152-2.368-.661-.555-1.472-.832-2.432-.832-.939 0-1.803.288-2.592.864-.79.576-1.248 1.355-1.376 2.336h7.552zm17.381-2.656c-1.43 0-2.496.512-3.2 1.536-.704 1.003-1.056 2.336-1.056 4V23h-4.8V5.784h4.8v2.272c.619-.704 1.387-1.301 2.304-1.792.939-.49 1.888-.747 2.848-.768l.032 4.512h-.928zM56.474 23L49.658 5.752h4.992L58.939 16.6l4.288-10.848h4.993L61.403 23h-4.928zm29.023-2.496c-1.942 1.835-4.225 2.752-6.849 2.752-2.602 0-4.757-.8-6.463-2.4-1.707-1.621-2.56-3.787-2.56-6.496 0-2.71.864-4.864 2.591-6.464 1.75-1.6 3.809-2.4 6.177-2.4 2.367 0 4.373.715 6.016 2.144 1.663 1.43 2.495 3.392 2.495 5.888v2.56H74.362c.149.939.64 1.707 1.471 2.304a4.717 4.717 0 0 0 2.817.896c1.685 0 3.072-.565 4.16-1.696l2.688 2.912zm-3.457-7.84c-.106-1.024-.49-1.813-1.152-2.368-.66-.555-1.472-.832-2.431-.832-.94 0-1.803.288-2.592.864-.79.576-1.248 1.355-1.376 2.336h7.551zm17.382-2.656c-1.43 0-2.496.512-3.2 1.536-.704 1.003-1.056 2.336-1.056 4V23h-4.8V5.784h4.8v2.272c.618-.704 1.386-1.301 2.304-1.792.938-.49 1.888-.747 2.848-.768l.032 4.512h-.928zm3.972 5.504v-4.256h11.392v4.256h-11.392zm28.776 2.144c0 1.685-.63 3.04-1.889 4.064-1.237 1.024-2.816 1.536-4.736 1.536-1.279 0-2.613-.224-4-.672a12.056 12.056 0 0 1-3.743-2.048l2.112-3.008c1.792 1.387 3.701 2.08 5.728 2.08.618 0 1.109-.117 1.471-.352.363-.256.545-.587.545-.992s-.256-.779-.769-1.12c-.49-.341-1.216-.661-2.175-.96-.939-.299-1.665-.555-2.177-.768a12.773 12.773 0 0 1-1.695-.928c-1.302-.81-1.952-2.005-1.952-3.584 0-1.6.64-2.901 1.919-3.904 1.28-1.003 2.934-1.504 4.96-1.504 2.027 0 4.054.683 6.08 2.048l-1.792 3.2c-1.493-1.024-2.986-1.536-4.479-1.536-1.472 0-2.208.405-2.208 1.216 0 .448.234.8.704 1.056.469.256 1.248.555 2.336.896 1.088.341 1.856.608 2.304.8.469.17 1.023.448 1.663.832 1.195.725 1.793 1.941 1.793 3.648zm14.769-2.592v-9.28h4.832V23h-4.832v-2.272c-1.195 1.685-2.742 2.528-4.64 2.528-1.878 0-3.456-.587-4.737-1.76-1.28-1.195-1.92-2.955-1.92-5.28V5.784h4.833v9.376c0 2.645.97 3.968 2.912 3.968.96 0 1.791-.341 2.495-1.024.705-.704 1.057-1.717 1.057-3.04zm19.38-9.568c2.006 0 3.787.843 5.344 2.528 1.579 1.664 2.368 3.765 2.368 6.304s-.789 4.661-2.368 6.368c-1.557 1.707-3.392 2.56-5.504 2.56-2.09 0-3.776-.843-5.056-2.528v8.48h-4.8V5.784h4.8v1.92c1.472-1.472 3.211-2.208 5.216-2.208zm-5.28 8.928c0 1.387.384 2.528 1.152 3.424.79.875 1.739 1.312 2.848 1.312 1.11 0 2.08-.437 2.912-1.312.832-.896 1.248-2.037 1.248-3.424s-.405-2.55-1.216-3.488c-.81-.939-1.781-1.408-2.912-1.408-1.13 0-2.09.47-2.88 1.408-.768.917-1.152 2.08-1.152 3.488zm26.593-8.928c2.005 0 3.786.843 5.344 2.528 1.578 1.664 2.368 3.765 2.368 6.304s-.79 4.661-2.368 6.368c-1.558 1.707-3.392 2.56-5.504 2.56-2.091 0-3.776-.843-5.056-2.528v8.48h-4.8V5.784h4.8v1.92c1.472-1.472 3.21-2.208 5.216-2.208zm-5.28 8.928c0 1.387.384 2.528 1.152 3.424.789.875 1.738 1.312 2.848 1.312 1.109 0 2.08-.437 2.912-1.312.832-.896 1.248-2.037 1.248-3.424s-.406-2.55-1.216-3.488c-.811-.939-1.782-1.408-2.912-1.408-1.131 0-2.091.47-2.88 1.408-.768.917-1.152 2.08-1.152 3.488zm20.416-.032c0 1.408.395 2.56 1.184 3.456.811.875 1.835 1.312 3.072 1.312 1.259 0 2.283-.437 3.072-1.312.811-.896 1.216-2.048 1.216-3.456s-.405-2.56-1.216-3.456c-.789-.896-1.813-1.344-3.072-1.344-1.237 0-2.261.448-3.072 1.344-.789.896-1.184 2.048-1.184 3.456zm13.376 0c0 2.496-.864 4.597-2.592 6.304-1.728 1.707-3.904 2.56-6.528 2.56-2.602 0-4.768-.853-6.496-2.56-1.728-1.707-2.592-3.808-2.592-6.304 0-2.496.864-4.597 2.592-6.304 1.728-1.728 3.894-2.592 6.496-2.592 2.624 0 4.8.864 6.528 2.592 1.728 1.707 2.592 3.808 2.592 6.304zm12.622-4.384c-1.43 0-2.496.512-3.2 1.536-.704 1.003-1.056 2.336-1.056 4V23h-4.8V5.784h4.8v2.272c.618-.704 1.386-1.301 2.304-1.792.938-.49 1.888-.747 2.847-.768l.032 4.512h-.927zm9.828-.768v7.712c0 .661.17 1.184.512 1.568.341.363.746.544 1.216.544.896 0 1.653-.405 2.272-1.216l1.792 3.36c-1.494 1.365-3.072 2.048-4.736 2.048-1.643 0-3.04-.544-4.192-1.632-1.131-1.088-1.696-2.57-1.696-4.448V9.24h-2.016V5.784h2.016V.632h4.832v5.152h4.16V9.24h-4.16z" fill="#0070FC"/><path d="M247.471 22.552a2.368 2.368 0 0 1-.672-1.696c0-.661.224-1.216.672-1.664a2.314 2.314 0 0 1 1.697-.704c.661 0 1.226.235 1.696.704a2.21 2.21 0 0 1 .704 1.664c0 .661-.235 1.227-.704 1.696a2.31 2.31 0 0 1-1.696.704 2.314 2.314 0 0 1-1.697-.704zm17.705-13.216c-1.77 0-3.104.576-4 1.728-.896 1.152-1.344 2.699-1.344 4.64V23h-3.584V5.976h3.584V9.4a7.48 7.48 0 0 1 2.336-2.624c1.003-.683 2.059-1.035 3.168-1.056l.032 3.616h-.192zm15.695 5.856V5.976h3.584V23h-3.584v-3.104a6.344 6.344 0 0 1-2.4 2.464 6.266 6.266 0 0 1-3.264.896c-1.92 0-3.477-.587-4.672-1.76-1.173-1.173-1.76-2.87-1.76-5.088V5.976h3.584v9.344c0 3.136 1.301 4.704 3.904 4.704 1.237 0 2.315-.405 3.232-1.216.917-.832 1.376-2.037 1.376-3.616z" fill="#C4C4C4"/></g></svg>